<?xml version="1.0" encoding="UTF-8"?>
<svg width="18" height="18" viewBox="0 0 18 18" xmlns="http://www.w3.org/2000/svg">
    <g transform="translate(1 1)" fill="none" fill-rule="evenodd">
        <path d="M16.6 8.245c0-.606-.054-1.189-.156-1.748H8.5v3.307h4.555a3.89 3.89 0 0 1-1.687 2.547v2.117h2.73c1.597-1.47 2.502-3.633 2.502-6.223Z" fill="#4285F4" fill-rule="nonzero"/>
        <path d="M8.5 16.5c2.28 0 4.19-.757 5.588-2.032l-2.73-2.117c-.756.507-1.722.806-2.858.806-2.198 0-4.057-1.485-4.72-3.477H.94v2.185A8.497 8.497 0 0 0 8.5 16.5Z" fill="#34A853" fill-rule="nonzero"/>
        <path d="M3.78 9.68a5.104 5.104 0 0 1 0-3.26V4.235H.94a8.497 8.497 0 0 0 0 7.63l2.84-2.185Z" fill="#FBBC05" fill-rule="nonzero"/>
        <path d="M8.5 3.244c1.239 0 2.35.426 3.225 1.262l2.42-2.42C12.638.793 10.728 0 8.5 0A8.497 8.497 0 0 0 .94 4.235l2.84 2.185C4.443 4.429 6.302 3.244 8.5 3.244Z" fill="#EA4335" fill-rule="nonzero"/>
    </g>
</svg>
